<?xml version="1.0" encoding="UTF-8"?>
<svg xmlns="http://www.w3.org/2000/svg" viewBox="0 0 1243.5 608.99">
  <defs>
    <style>
      .cls-1, .cls-2 {
        fill: none;
      }

      .cls-1, .cls-2, .cls-3, .cls-4 {
        stroke: #000;
        stroke-miterlimit: 10;
      }

      .cls-1, .cls-4 {
        stroke-width: 13px;
      }

      .cls-2, .cls-3 {
        stroke-width: 20px;
      }
    </style>
  </defs>
  <g id="Layer_1">
    <path class="cls-2" d="M80.36,385.63c-12-17-9.66-43.8,10-62.97,34.76-37.98,122.64-14.56,128,41.97,6.65,96.52-109.52,142.78-175.92,76.14-48.04-45.01-37.48-121.58-2.38-171.54,35.59-53.97,98.4-88.04,142.84-136.93,109.62-105.92,14.83-176.99-31.09-67.32-20.47,52.9-14.25,108.59-14.57,165.38.72,79,1.44,164.9,2.14,243.25-1.46,37.87,5.46,71.57-4.58,104.93-17.63,37.4-55.64,16.98-74.4-9.64"/>
    <polyline class="cls-2" points="182.9 132.31 352.36 132.31 406.2 78.47 583.36 78.47 637.32 132.43 820.33 132.43 820.33 499.47 146.36 499.47"/>
  </g>
  <g id="Layer_2">
    <g>
      <path class="cls-3" d="M330.42,261.58c1.27-16.47,15.35-29.29,31.33-30.02,17.94-.81,34.55,13.78,34.63,32.43.08,18.98-17,34.1-35.61,32.65-13.24-1.03-24.46-10.23-28.66-22.27-1.4-4.01-2.02-8.34-1.68-12.79Z"/>
      <line class="cls-3" x1="330.17" y1="460.6" x2="330.45" y2="261.58"/>
    </g>
    <g>
      <path class="cls-3" d="M615.49,403.21c-1.27,16.47-15.35,29.29-31.33,30.02-17.94.81-34.55-13.78-34.63-32.43-.08-18.98,17-34.1,35.61-32.65,13.24,1.03,24.46,10.23,28.66,22.27,1.4,4.01,2.02,8.34,1.68,12.79Z"/>
      <line class="cls-3" x1="615.74" y1="204.18" x2="615.46" y2="403.2"/>
    </g>
  </g>
  <g id="Layer_3">
    <path class="cls-2" d="M419.88,240.45s98.79-79.58,162.78,29.67"/>
    <path class="cls-2" d="M531.46,429.63s-104.45,71.98-160.11-41.73"/>
  </g>
  <g id="Layer_4">
    <line class="cls-1" x1="198.57" y1="164.63" x2="198.57" y2="241.63"/>
    <line class="cls-1" x1="243.78" y1="164.63" x2="243.78" y2="241.63"/>
    <line class="cls-1" x1="259.07" y1="179.84" x2="182.07" y2="179.84"/>
    <line class="cls-1" x1="259.07" y1="225.04" x2="182.07" y2="225.04"/>
    <rect class="cls-4" x="714.69" y="91.68" width="77.24" height="40.75"/>
    <line class="cls-1" x1="147.36" y1="265.13" x2="303.49" y2="265.13"/>
    <line class="cls-1" x1="646.53" y1="265.13" x2="816.36" y2="265.13"/>
  </g>
  <g id="Layer_6">
    <g>
      <path d="M900.05,193.27c0-4.14-.84-7.67-2.52-10.58-1.68-2.91-4.27-4.37-7.77-4.37-3.88,0-6.73,1.26-8.54,3.79-1.81,2.52-2.72,5.34-2.72,8.45,0,4.53,1.46,8.12,4.37,10.78,2.91,2.65,6.57,4.95,10.97,6.89,4.4,1.94,9.12,3.92,14.17,5.92,5.05,2.01,9.77,4.63,14.17,7.86,4.4,3.24,8.06,7.48,10.97,12.72s4.37,12.07,4.37,20.48c0,14.76-4.21,25.47-12.62,32.13-8.42,6.67-20.58,10-36.5,10-7.51,0-14.14-.62-19.9-1.84-5.76-1.23-10.62-3.36-14.56-6.41-3.95-3.04-6.96-7.02-9.03-11.94-2.07-4.92-3.11-11-3.11-18.25v-4.85h34.95v3.3c0,5.96,1.1,10.13,3.3,12.52,2.2,2.4,5.05,3.59,8.54,3.59,3.75,0,6.63-1.29,8.64-3.88,2.01-2.59,3.01-5.76,3.01-9.51,0-4.53-1.39-8.12-4.17-10.78-2.78-2.65-6.28-4.92-10.48-6.8-4.21-1.88-8.77-3.79-13.69-5.73-4.92-1.94-9.48-4.47-13.69-7.57-4.21-3.11-7.7-7.18-10.48-12.23-2.79-5.05-4.17-11.65-4.17-19.8,0-14.11,3.75-24.85,11.26-32.23,7.51-7.38,18.9-11.07,34.17-11.07s27.21,3.4,34.27,10.19c7.05,6.8,10.58,17.64,10.58,32.52h-33.78v-3.3Z"/>
      <path d="M983.14,190.17v14.37h.39c4.01-11.39,11.97-17.09,23.88-17.09s19.8,4.73,24.46,14.17c4.66,9.45,6.99,23.88,6.99,43.3,0,10.1-.78,18.51-2.33,25.24-1.55,6.73-3.72,12.13-6.5,16.21-2.79,4.08-6.15,6.93-10.1,8.54-3.95,1.62-8.38,2.43-13.3,2.43s-9.35-.97-13.3-2.91c-3.95-1.94-6.83-5.63-8.64-11.07h-.39v45.43h-34.95v-138.63h33.78ZM984.7,256.76c.26,3.76.74,6.77,1.46,9.03.71,2.27,1.71,3.85,3.01,4.76,1.29.91,2.91,1.36,4.85,1.36,2.07,0,3.75-.45,5.05-1.36,1.29-.9,2.3-2.49,3.01-4.76.71-2.26,1.2-5.27,1.46-9.03.26-3.75.39-8.48.39-14.17s-.13-10.39-.39-14.08c-.26-3.69-.75-6.67-1.46-8.93-.71-2.26-1.72-3.85-3.01-4.76-1.29-.9-2.98-1.36-5.05-1.36-1.94,0-3.56.46-4.85,1.36-1.3.91-2.3,2.49-3.01,4.76-.71,2.27-1.2,5.24-1.46,8.93-.26,3.69-.39,8.38-.39,14.08s.13,10.42.39,14.17Z"/>
      <path d="M1134.49,262.98c-.97,6.6-3.01,12.46-6.12,17.57-3.11,5.11-7.61,9.19-13.49,12.23-5.89,3.04-13.75,4.56-23.59,4.56s-18.32-1.39-24.27-4.17c-5.96-2.78-10.42-6.67-13.4-11.65-2.98-4.98-4.89-10.81-5.73-17.47-.84-6.67-1.26-13.82-1.26-21.45,0-6.86.49-13.59,1.46-20.19.97-6.6,3.01-12.49,6.12-17.67,3.11-5.18,7.6-9.35,13.49-12.52,5.89-3.17,13.75-4.76,23.59-4.76s18.31,1.46,24.27,4.37c5.95,2.91,10.42,6.89,13.4,11.94,2.98,5.05,4.88,10.91,5.73,17.57.84,6.67,1.26,13.82,1.26,21.45,0,6.86-.49,13.59-1.46,20.19ZM1081.97,259c.26,4.21.78,7.54,1.55,10,.78,2.46,1.78,4.14,3.01,5.05,1.23.91,2.81,1.36,4.76,1.36s3.56-.45,4.85-1.36c1.29-.9,2.3-2.59,3.01-5.05.71-2.46,1.2-5.79,1.46-10,.26-4.2.39-9.61.39-16.21s-.13-12.04-.39-16.31c-.26-4.27-.75-7.64-1.46-10.1-.71-2.46-1.72-4.14-3.01-5.05-1.3-.9-2.91-1.36-4.85-1.36s-3.53.46-4.76,1.36c-1.23.91-2.23,2.59-3.01,5.05-.78,2.46-1.3,5.82-1.55,10.1-.26,4.27-.39,9.71-.39,16.31s.13,12.01.39,16.21Z"/>
      <path d="M1151.86,190.17v-30.87h34.95v30.87h13.79v23.49h-13.79v50.09c0,2.98.68,5.08,2.04,6.31,1.36,1.23,3.46,1.84,6.31,1.84h5.44v23.3c-3.24,0-6.47.1-9.71.29-3.24.19-6.34.29-9.32.29-5.31,0-9.84-.23-13.59-.68-3.76-.45-6.83-1.58-9.22-3.4-2.4-1.81-4.14-4.5-5.24-8.06-1.1-3.56-1.65-8.25-1.65-14.08v-55.92h-11.65v-23.49h11.65Z"/>
      <path d="M1243.5,156.58v26.02h-34.95v-26.02h34.95ZM1243.5,190.17v105.04h-34.95v-105.04h34.95Z"/>
    </g>
    <g>
      <path d="M899.02,337.65c6.85,0,12.8,1.1,17.85,3.3,5.04,2.2,9.21,5.21,12.51,9.02,3.3,3.82,5.72,8.31,7.28,13.48,1.55,5.17,2.33,10.8,2.33,16.88,0,14.36-3.85,25.12-11.54,32.3-7.7,7.18-18.98,10.77-33.85,10.77h-12.61v52.77h-36.08v-138.52h54.13ZM887.77,397.4c4.53,0,7.98-1.36,10.38-4.07,2.39-2.72,3.59-6.98,3.59-12.8,0-11.25-4.66-16.88-13.97-16.88h-6.79v33.76h6.79Z"/>
      <path d="M984.38,337.65v26h-34.92v-26h34.92ZM984.38,371.21v104.95h-34.92v-104.95h34.92Z"/>
      <path d="M1050.53,401.96c-.39-2.65-.97-4.82-1.75-6.5-1.42-2.97-4.01-4.46-7.76-4.46-1.94,0-3.59.49-4.95,1.46-1.36.97-2.42,2.72-3.2,5.24-.78,2.52-1.33,5.89-1.65,10.09-.32,4.2-.49,9.54-.49,16s.16,11.8.49,16c.32,4.2.87,7.54,1.65,9.99.78,2.46,1.84,4.17,3.2,5.14,1.36.97,3.01,1.46,4.95,1.46,3.23,0,5.72-1.23,7.47-3.69,1.75-2.46,2.62-6.98,2.62-13.58v-6.79h31.43c0,8.28-.71,15.33-2.13,21.15-1.42,5.82-3.82,10.61-7.18,14.36-6.6,6.98-17.33,10.48-32.2,10.48-6.73,0-12.87-.58-18.43-1.75-5.56-1.16-10.32-3.65-14.26-7.47-3.95-3.81-7.02-9.18-9.21-16.1-2.2-6.92-3.3-16.07-3.3-27.45,0-12.42,1.23-22.37,3.69-29.88,2.46-7.5,5.79-13.26,9.99-17.27,4.2-4.01,9.15-6.66,14.84-7.95,5.69-1.29,11.83-1.94,18.43-1.94,7.76,0,14.19,1.07,19.3,3.2,5.11,2.13,9.18,5.11,12.22,8.92,3.04,3.82,5.17,8.41,6.4,13.77,1.23,5.37,1.84,11.35,1.84,17.95h-31.43c0-4.27-.19-7.73-.58-10.38Z"/>
    </g>
  </g>
</svg>